<svg id="Layer_1" data-name="Layer 1" xmlns="http://www.w3.org/2000/svg" viewBox="0 0 691.61 79.63"><defs><style>.cls-1{fill:#fff;}.cls-2{fill:#cfb87c;}.cls-3{fill:#231f20;}</style></defs><title>cu-boulder-incuvate-logo-white</title><path class="cls-1" d="M139.55,178.85h2.18V193c0,5.31,2.5,7.33,6.69,7.33s6.75-2,6.72-7.33V178.85h2.18v14.62c0,4.7-2.53,8.7-8.9,8.7s-8.86-4-8.86-8.7Z" transform="translate(-40.28 -158.01)"/><path class="cls-1" d="M161.28,185.19h2V188h.06a5.6,5.6,0,0,1,5.28-3.33c4.64,0,6,2.43,6,6.37V201.7h-2V191.4c0-2.85-.93-5-4.19-5s-5.12,2.43-5.18,5.66v9.63h-2Z" transform="translate(-40.28 -158.01)"/><path class="cls-1" d="M178.53,178.85h2v3.23h-2Zm0,6.34h2V201.7h-2Z" transform="translate(-40.28 -158.01)"/><path class="cls-1" d="M182.56,185.19h2.24L190,199.68H190l5.12-14.49h2.08l-6.18,16.51h-2.14Z" transform="translate(-40.28 -158.01)"/><path class="cls-1" d="M200.42,194c0,2.94,1.57,6.5,5.44,6.5,2.94,0,4.54-1.73,5.18-4.22h2c-.86,3.74-3,5.92-7.2,5.92-5.25,0-7.46-4-7.46-8.74,0-4.35,2.21-8.74,7.46-8.74s7.42,4.64,7.26,9.28Zm10.69-1.7c-.1-3-2-5.89-5.25-5.89s-5.12,2.88-5.44,5.89Z" transform="translate(-40.28 -158.01)"/><path class="cls-1" d="M215.84,185.19h1.86v3.87h.06A6.1,6.1,0,0,1,224,185v2a5.69,5.69,0,0,0-6.14,5.92v8.8h-2Z" transform="translate(-40.28 -158.01)"/><path class="cls-1" d="M235.81,190c-.1-2.5-2-3.62-4.32-3.62-1.79,0-3.9.7-3.9,2.85,0,1.79,2,2.43,3.42,2.78l2.69.61c2.3.35,4.7,1.7,4.7,4.58,0,3.58-3.55,5-6.62,5-3.84,0-6.46-1.79-6.78-5.82h2c.16,2.72,2.18,4.13,4.86,4.13,1.89,0,4.51-.83,4.51-3.14,0-1.92-1.79-2.56-3.62-3l-2.59-.58c-2.62-.7-4.61-1.6-4.61-4.42,0-3.36,3.29-4.64,6.21-4.64,3.3,0,5.92,1.73,6,5.31Z" transform="translate(-40.28 -158.01)"/><path class="cls-1" d="M241.34,178.85h2v3.23h-2Zm0,6.34h2V201.7h-2Z" transform="translate(-40.28 -158.01)"/><path class="cls-1" d="M250.43,185.19h3.36v1.7h-3.36V198c0,1.31.19,2.08,1.63,2.18a15.52,15.52,0,0,0,1.73-.1v1.73c-.61,0-1.18.06-1.79.06-2.69,0-3.62-.9-3.58-3.71v-11.3h-2.88v-1.7h2.88v-5h2Z" transform="translate(-40.28 -158.01)"/><path class="cls-1" d="M254.85,185.19H257l5.44,14.08,5.09-14.08h2l-7.17,19c-1.15,2.78-1.82,3.58-4.35,3.58a5.2,5.2,0,0,1-1.54-.16V206a7,7,0,0,0,1.38.16c1.79,0,2.21-1.06,2.88-2.59l.7-1.89Z" transform="translate(-40.28 -158.01)"/><path class="cls-1" d="M295.2,193.44c0,4.74-2.75,8.74-7.81,8.74s-7.81-4-7.81-8.74,2.75-8.74,7.81-8.74S295.2,188.71,295.2,193.44Zm-13.6,0c0,3.52,1.92,7,5.79,7s5.79-3.52,5.79-7-1.92-7-5.79-7S281.6,189.92,281.6,193.44Z" transform="translate(-40.28 -158.01)"/><path class="cls-1" d="M304.57,186.88h-3.26V201.7h-2V186.88h-2.82v-1.7h2.82v-1.5c0-2.85.77-4.83,4-4.83a10.6,10.6,0,0,1,1.7.13v1.73a8.28,8.28,0,0,0-1.47-.16c-2.24,0-2.18,1.41-2.21,3.2v1.44h3.26Z" transform="translate(-40.28 -158.01)"/><path class="cls-1" d="M332.48,185.76a6.93,6.93,0,0,0-7-5.54c-6,0-8.61,5.06-8.61,10s2.56,10,8.61,10c4.22,0,6.91-3.26,7.33-7.33H335c-.61,5.6-4.16,9.18-9.5,9.18-7.2,0-10.78-5.66-10.78-11.9s3.58-11.9,10.78-11.9c4.32,0,8.61,2.59,9.18,7.39Z" transform="translate(-40.28 -158.01)"/><path class="cls-1" d="M352.7,193.44c0,4.74-2.75,8.74-7.81,8.74s-7.81-4-7.81-8.74,2.75-8.74,7.81-8.74S352.7,188.71,352.7,193.44Zm-13.6,0c0,3.52,1.92,7,5.79,7s5.79-3.52,5.79-7-1.92-7-5.79-7S339.1,189.92,339.1,193.44Z" transform="translate(-40.28 -158.01)"/><path class="cls-1" d="M355.74,178.85h2V201.7h-2Z" transform="translate(-40.28 -158.01)"/><path class="cls-1" d="M376.41,193.44c0,4.74-2.75,8.74-7.81,8.74s-7.81-4-7.81-8.74,2.75-8.74,7.81-8.74S376.41,188.71,376.41,193.44Zm-13.6,0c0,3.52,1.92,7,5.79,7s5.79-3.52,5.79-7-1.92-7-5.79-7S362.81,189.92,362.81,193.44Z" transform="translate(-40.28 -158.01)"/><path class="cls-1" d="M379.42,185.19h1.86v3.87h.06a6.1,6.1,0,0,1,6.24-4.1v2a5.69,5.69,0,0,0-6.14,5.92v8.8h-2Z" transform="translate(-40.28 -158.01)"/><path class="cls-1" d="M389.31,190.24c.19-3.87,2.91-5.54,6.69-5.54,2.91,0,6.08.9,6.08,5.31v8.77a1.07,1.07,0,0,0,1.18,1.22,1.9,1.9,0,0,0,.64-.13v1.7a5.54,5.54,0,0,1-1.31.13c-2,0-2.37-1.15-2.37-2.88h-.06c-1.41,2.14-2.85,3.36-6,3.36s-5.54-1.5-5.54-4.83c0-4.64,4.51-4.8,8.86-5.31,1.66-.19,2.59-.42,2.59-2.24,0-2.72-2-3.39-4.32-3.39s-4.35,1.15-4.42,3.84Zm10.75,2.43H400c-.26.48-1.15.64-1.7.74-3.42.61-7.68.58-7.68,3.81a3.44,3.44,0,0,0,3.68,3.26c3.07,0,5.79-2,5.76-5.18Z" transform="translate(-40.28 -158.01)"/><path class="cls-1" d="M420.64,201.7h-1.86v-3.14h-.06a6.54,6.54,0,0,1-5.89,3.62c-5,0-7.42-4.06-7.42-8.74s2.4-8.74,7.42-8.74a5.89,5.89,0,0,1,5.73,3.62h.06v-9.47h2Zm-7.81-1.21c4.29,0,5.79-3.62,5.79-7s-1.5-7-5.79-7c-3.84,0-5.41,3.62-5.41,7S409,200.48,412.83,200.48Z" transform="translate(-40.28 -158.01)"/><path class="cls-1" d="M439.26,193.44c0,4.74-2.75,8.74-7.81,8.74s-7.81-4-7.81-8.74,2.75-8.74,7.81-8.74S439.26,188.71,439.26,193.44Zm-13.6,0c0,3.52,1.92,7,5.79,7s5.79-3.52,5.79-7-1.92-7-5.79-7S425.66,189.92,425.66,193.44Z" transform="translate(-40.28 -158.01)"/><path class="cls-1" d="M451.45,178.85H462.2c4.35,0,7.3,1.41,7.3,5.66a5,5,0,0,1-3.1,4.77,5.58,5.58,0,0,1,4.19,5.79c0,4.64-3.94,6.62-8.06,6.62H451.45Zm5,9.25h5.09c1.76,0,3.07-.8,3.07-2.72,0-2.18-1.66-2.62-3.46-2.62h-4.7Zm0,9.7h5.38c2,0,3.71-.64,3.71-3s-1.47-3.26-3.62-3.26h-5.47Z" transform="translate(-40.28 -158.01)"/><path class="cls-1" d="M481.53,184.71c5.21,0,8.58,3.46,8.58,8.74s-3.36,8.7-8.58,8.7-8.54-3.46-8.54-8.7S476.35,184.71,481.53,184.71Zm0,14c3.1,0,4-2.66,4-5.28s-.93-5.31-4-5.31-4,2.66-4,5.31S478.46,198.72,481.53,198.72Z" transform="translate(-40.28 -158.01)"/><path class="cls-1" d="M508.57,201.7h-4.32v-2.3h-.1a5.9,5.9,0,0,1-5.06,2.75c-4.83,0-6-2.72-6-6.82V185.16h4.54v9.34c0,2.72.8,4.06,2.91,4.06,2.46,0,3.52-1.38,3.52-4.74v-8.67h4.54Z" transform="translate(-40.28 -158.01)"/><path class="cls-1" d="M512.16,178.85h4.54V201.7h-4.54Z" transform="translate(-40.28 -158.01)"/><path class="cls-1" d="M532.09,199.59H532a5.49,5.49,0,0,1-5,2.56c-5,0-7.42-4.29-7.42-8.86s2.46-8.58,7.33-8.58a5.69,5.69,0,0,1,4.9,2.46h.06v-8.32h4.54V201.7h-4.32Zm-4-11.46c-3,0-4,2.56-4,5.28s1.18,5.31,4,5.31c3,0,3.9-2.62,3.9-5.34S531.07,188.13,528.12,188.13Z" transform="translate(-40.28 -158.01)"/><path class="cls-1" d="M543.58,194.53c.13,2.88,1.54,4.19,4.06,4.19a3.74,3.74,0,0,0,3.58-2.14h4c-1.28,3.9-4,5.57-7.74,5.57-5.21,0-8.45-3.58-8.45-8.7,0-5,3.42-8.74,8.45-8.74,5.63,0,8.35,4.74,8,9.82Zm7.39-2.88c-.42-2.3-1.41-3.52-3.62-3.52a3.58,3.58,0,0,0-3.78,3.52Z" transform="translate(-40.28 -158.01)"/><path class="cls-1" d="M558.2,185.16h4.32v3.07h.06a5.85,5.85,0,0,1,5.28-3.52,3.38,3.38,0,0,1,1,.16v4.22a8.28,8.28,0,0,0-1.63-.16c-3.33,0-4.48,2.4-4.48,5.31v7.46H558.2Z" transform="translate(-40.28 -158.01)"/><polygon class="cls-2" points="59.6 20.07 59.6 10.92 48.7 0 10.93 0 0 10.92 0 48.62 10.93 59.53 22.93 59.53 22.93 68.71 33.95 79.64 65.82 79.64 76.86 68.72 76.86 39.51 82.49 39.51 82.49 20.07 59.6 20.07"/><polygon class="cls-3" points="48.23 1.13 58.46 11.39 58.46 21.2 81.36 21.2 81.36 38.39 75.73 38.39 75.73 68.24 65.35 78.5 34.41 78.5 24.06 68.24 24.06 58.4 11.4 58.4 1.13 48.15 1.13 11.39 11.4 1.13 48.23 1.13"/><polyline class="cls-1" points="12.57 55.57 26.89 55.57 26.89 67.06 35.58 75.67 64.19 75.67 72.9 67.06 72.9 35.55 78.53 35.55 78.53 24.04 61.26 24.04 61.26 64.17 38.4 64.17 38.4 55.57 47.05 55.57 55.63 46.97 55.63 35.55 44.12 35.55 44.12 44.08 38.4 44.08 38.4 24.04 21.18 24.04 21.18 35.55 26.89 35.55 26.89 44.08 15.45 44.08 15.45 15.37 44.12 15.37 44.12 24.04 55.63 24.04 55.63 12.57 47.05 3.96 12.57 3.96 3.96 12.56 3.96 46.97 12.57 55.57"/><polygon class="cls-2" points="36.98 54.15 46.47 54.15 54.22 46.39 54.22 36.97 45.54 36.97 45.54 45.5 36.98 45.5 36.98 25.46 22.6 25.46 22.6 34.14 28.31 34.14 28.31 45.5 14.04 45.5 14.04 13.95 45.54 13.95 45.54 22.62 54.22 22.62 54.22 13.15 46.47 5.38 13.16 5.38 5.38 13.15 5.38 46.39 13.16 54.15 28.31 54.15 28.31 66.47 36.16 74.26 63.6 74.26 71.48 66.46 71.48 34.14 77.11 34.14 77.11 25.46 62.67 25.46 62.67 65.58 36.98 65.58 36.98 54.15"/><path class="cls-1" d="M605.84,178.14V201.7h-5.18V178.14Z" transform="translate(-40.28 -158.01)"/><path class="cls-1" d="M614.36,184.64V187h.1a5.38,5.38,0,0,1,2.31-2.16,6.69,6.69,0,0,1,2.9-.68,8,8,0,0,1,3.09.51,4.59,4.59,0,0,1,1.9,1.42,5.51,5.51,0,0,1,1,2.21,13.8,13.8,0,0,1,.28,2.89V201.7h-4.69v-9.64a6,6,0,0,0-.66-3.15,2.56,2.56,0,0,0-2.34-1,3.25,3.25,0,0,0-2.77,1.14,6.33,6.33,0,0,0-.86,3.75v8.94H609.9V184.64Z" transform="translate(-40.28 -158.01)"/><path class="cls-1" d="M637.62,187.71a3.29,3.29,0,0,0-1.88.51,4.07,4.07,0,0,0-1.24,1.32,5.69,5.69,0,0,0-.68,1.78,9.69,9.69,0,0,0-.2,1.93,9.28,9.28,0,0,0,.2,1.88,5.81,5.81,0,0,0,.64,1.73,3.68,3.68,0,0,0,1.2,1.27,3.31,3.31,0,0,0,1.85.5,3.43,3.43,0,0,0,2.59-.94,4.45,4.45,0,0,0,1.14-2.52h4.52a7.73,7.73,0,0,1-2.64,5.18,8.52,8.52,0,0,1-5.58,1.78,9.32,9.32,0,0,1-3.51-.64,7.77,7.77,0,0,1-2.72-1.8,8.19,8.19,0,0,1-1.75-2.76,9.55,9.55,0,0,1-.63-3.51,11.38,11.38,0,0,1,.58-3.68,8.27,8.27,0,0,1,1.7-2.94,7.78,7.78,0,0,1,2.74-1.93,9.31,9.31,0,0,1,3.7-.69,10.72,10.72,0,0,1,2.92.4,7.81,7.81,0,0,1,2.51,1.2,6.23,6.23,0,0,1,2.59,4.87h-4.59A3.14,3.14,0,0,0,637.62,187.71Z" transform="translate(-40.28 -158.01)"/><path class="cls-1" d="M660,201.7v-2.38h-.1a5.27,5.27,0,0,1-2.31,2.14,6.81,6.81,0,0,1-2.9.66,8.19,8.19,0,0,1-3.08-.5,4.44,4.44,0,0,1-1.9-1.4,5.48,5.48,0,0,1-1-2.21,13.71,13.71,0,0,1-.28-2.89V184.64h4.69v9.64a6,6,0,0,0,.66,3.15,2.55,2.55,0,0,0,2.34,1,3.25,3.25,0,0,0,2.77-1.14,6.34,6.34,0,0,0,.86-3.75v-8.94h4.69V201.7Z" transform="translate(-40.28 -158.01)"/><path class="cls-1" d="M672.21,201.7l-5.84-17.06h4.92l3.6,11.65h.07l3.6-11.65h4.65l-5.77,17.06Z" transform="translate(-40.28 -158.01)"/><path class="cls-1" d="M684.94,189.88a5.43,5.43,0,0,1,.83-2.74,5.61,5.61,0,0,1,1.85-1.75,8,8,0,0,1,2.52-.94,14.38,14.38,0,0,1,2.82-.28,19.28,19.28,0,0,1,2.61.18,8,8,0,0,1,2.41.71,4.75,4.75,0,0,1,1.78,1.47,4.1,4.1,0,0,1,.69,2.49v8.88a17.84,17.84,0,0,0,.13,2.21,4,4,0,0,0,.46,1.58H696.3a6.65,6.65,0,0,1-.21-.81A6.79,6.79,0,0,1,696,200a6.1,6.1,0,0,1-2.64,1.62,10.61,10.61,0,0,1-3.1.46,8.37,8.37,0,0,1-2.28-.3,5.22,5.22,0,0,1-1.85-.92,4.3,4.3,0,0,1-1.24-1.58,5.36,5.36,0,0,1-.45-2.28,5,5,0,0,1,.51-2.39,4.26,4.26,0,0,1,1.32-1.5,5.91,5.91,0,0,1,1.85-.84,19.9,19.9,0,0,1,2.1-.45q1.05-.16,2.08-.26a12.59,12.59,0,0,0,1.81-.3,3.17,3.17,0,0,0,1.25-.58,1.27,1.27,0,0,0,.43-1.11,2.48,2.48,0,0,0-.25-1.2,1.82,1.82,0,0,0-.66-.69,2.61,2.61,0,0,0-1-.33,7.87,7.87,0,0,0-1.17-.08,3.56,3.56,0,0,0-2.18.59,2.65,2.65,0,0,0-.92,2Zm10.82,3.47a2.11,2.11,0,0,1-.74.41,7.55,7.55,0,0,1-1,.25q-.51.1-1.07.17t-1.12.17a8.44,8.44,0,0,0-1,.26,3.09,3.09,0,0,0-.89.45,2.12,2.12,0,0,0-.61.71,2.28,2.28,0,0,0-.23,1.09,2.2,2.2,0,0,0,.23,1.06,1.77,1.77,0,0,0,.63.68,2.63,2.63,0,0,0,.92.35,5.86,5.86,0,0,0,1.09.1,4.14,4.14,0,0,0,2.15-.46,3.09,3.09,0,0,0,1.12-1.11,3.53,3.53,0,0,0,.45-1.3,9,9,0,0,0,.08-1.06Z" transform="translate(-40.28 -158.01)"/><path class="cls-1" d="M713.46,184.64v3.13H710v8.45a1.59,1.59,0,0,0,2,2q.4,0,.76,0a6.47,6.47,0,0,0,.69-.1v3.63a11.19,11.19,0,0,1-1.32.13q-.73,0-1.42,0a13.73,13.73,0,0,1-2.06-.15,4.85,4.85,0,0,1-1.72-.58,3.06,3.06,0,0,1-1.17-1.22,4.36,4.36,0,0,1-.43-2.08V187.77H702.5v-3.13h2.84v-5.12H710v5.12Z" transform="translate(-40.28 -158.01)"/><path class="cls-1" d="M720.71,197.61a4.81,4.81,0,0,0,5.48.31,2.94,2.94,0,0,0,1.25-1.5h4.13a7.84,7.84,0,0,1-3,4.39,8.94,8.94,0,0,1-5,1.32,9.73,9.73,0,0,1-3.63-.64,7.54,7.54,0,0,1-2.74-1.83,8.24,8.24,0,0,1-1.73-2.84,10.38,10.38,0,0,1-.61-3.63,10,10,0,0,1,.63-3.56,8.25,8.25,0,0,1,4.54-4.75,8.84,8.84,0,0,1,3.55-.69,8.12,8.12,0,0,1,3.79.84,7.58,7.58,0,0,1,2.66,2.26,9.3,9.3,0,0,1,1.5,3.23,12.06,12.06,0,0,1,.33,3.79H719.56A4.74,4.74,0,0,0,720.71,197.61Zm5.3-9a3.3,3.3,0,0,0-2.56-.92,4.08,4.08,0,0,0-1.86.38,3.55,3.55,0,0,0-1.19.94,3.46,3.46,0,0,0-.63,1.19,5.42,5.42,0,0,0-.21,1.12h7.62A5.42,5.42,0,0,0,726,188.63Z" transform="translate(-40.28 -158.01)"/><path class="cls-1" d="M586.15,175.72v33h-3.53v-33Z" transform="translate(-40.28 -158.01)"/></svg>