<svg id="Layer_1" data-name="Layer 1" xmlns="http://www.w3.org/2000/svg" viewBox="0 0 299.71 153.81"><defs><style>.cls-1{fill:#fff;}.cls-2{fill:#cfb87c;}.cls-3{fill:#231f20;}</style></defs><title>cu-boulder-centered-white</title><path class="cls-1" d="M150.1,212.55h2.18v14.14c0,5.31,2.5,7.33,6.69,7.33s6.75-2,6.72-7.33V212.55h2.18v14.62c0,4.71-2.53,8.7-8.89,8.7s-8.86-4-8.86-8.7Z" transform="translate(-150.1 -117.07)"/><path class="cls-1" d="M171.83,218.89h2v2.85h.06a5.6,5.6,0,0,1,5.28-3.33c4.64,0,6,2.43,6,6.37V235.4h-2v-10.3c0-2.85-.93-5-4.19-5s-5.12,2.43-5.18,5.66v9.63h-2Z" transform="translate(-150.1 -117.07)"/><path class="cls-1" d="M189.08,212.55h2v3.23h-2Zm0,6.33h2V235.4h-2Z" transform="translate(-150.1 -117.07)"/><path class="cls-1" d="M193.11,218.89h2.24l5.18,14.5h.06l5.12-14.5h2.08l-6.18,16.51h-2.14Z" transform="translate(-150.1 -117.07)"/><path class="cls-1" d="M211,227.69c0,2.94,1.57,6.5,5.44,6.5,2.94,0,4.54-1.73,5.18-4.22h2c-.86,3.74-3,5.92-7.2,5.92-5.25,0-7.46-4-7.46-8.74,0-4.35,2.21-8.74,7.46-8.74s7.42,4.64,7.26,9.28Zm10.69-1.7c-.1-3-2-5.89-5.25-5.89S211.29,223,211,226Z" transform="translate(-150.1 -117.07)"/><path class="cls-1" d="M226.39,218.89h1.86v3.87h.06a6.1,6.1,0,0,1,6.24-4.1v2a5.69,5.69,0,0,0-6.14,5.92v8.8h-2Z" transform="translate(-150.1 -117.07)"/><path class="cls-1" d="M246.36,223.72c-.1-2.5-2-3.62-4.32-3.62-1.79,0-3.9.7-3.9,2.85,0,1.79,2,2.43,3.42,2.78l2.69.61c2.3.35,4.7,1.7,4.7,4.58,0,3.58-3.55,5-6.62,5-3.84,0-6.46-1.79-6.78-5.82h2c.16,2.72,2.18,4.13,4.86,4.13,1.89,0,4.51-.83,4.51-3.13,0-1.92-1.79-2.56-3.62-3l-2.59-.58c-2.62-.7-4.61-1.6-4.61-4.42,0-3.36,3.3-4.64,6.21-4.64,3.3,0,5.92,1.73,6,5.31Z" transform="translate(-150.1 -117.07)"/><path class="cls-1" d="M251.9,212.55h2v3.23h-2Zm0,6.33h2V235.4h-2Z" transform="translate(-150.1 -117.07)"/><path class="cls-1" d="M261,218.89h3.36v1.7H261v11.14c0,1.31.19,2.08,1.63,2.18a15.54,15.54,0,0,0,1.73-.1v1.73c-.61,0-1.18.06-1.79.06-2.69,0-3.62-.9-3.58-3.71v-11.3h-2.88v-1.7H259v-5h2Z" transform="translate(-150.1 -117.07)"/><path class="cls-1" d="M265.4,218.89h2.14L273,233l5.09-14.08h2l-7.17,19c-1.15,2.78-1.82,3.58-4.35,3.58a5.23,5.23,0,0,1-1.54-.16v-1.7a7,7,0,0,0,1.38.16c1.79,0,2.21-1.06,2.88-2.59l.7-1.89Z" transform="translate(-150.1 -117.07)"/><path class="cls-1" d="M305.75,227.14c0,4.74-2.75,8.74-7.81,8.74s-7.81-4-7.81-8.74,2.75-8.74,7.81-8.74S305.75,222.41,305.75,227.14Zm-13.6,0c0,3.52,1.92,7,5.79,7s5.79-3.52,5.79-7-1.92-7-5.79-7S292.15,223.62,292.15,227.14Z" transform="translate(-150.1 -117.07)"/><path class="cls-1" d="M315.13,220.58h-3.26V235.4h-2V220.58H307v-1.7h2.82v-1.5c0-2.85.77-4.83,4-4.83a10.67,10.67,0,0,1,1.7.13v1.73a8.3,8.3,0,0,0-1.47-.16c-2.24,0-2.18,1.41-2.21,3.2v1.44h3.26Z" transform="translate(-150.1 -117.07)"/><path class="cls-1" d="M343,219.46a6.93,6.93,0,0,0-7-5.54c-6,0-8.61,5.05-8.61,10S330,234,336,234c4.22,0,6.91-3.26,7.33-7.33h2.18c-.61,5.6-4.16,9.18-9.5,9.18-7.2,0-10.78-5.66-10.78-11.9s3.58-11.9,10.78-11.9c4.32,0,8.61,2.59,9.18,7.39Z" transform="translate(-150.1 -117.07)"/><path class="cls-1" d="M363.25,227.14c0,4.74-2.75,8.74-7.81,8.74s-7.81-4-7.81-8.74,2.75-8.74,7.81-8.74S363.25,222.41,363.25,227.14Zm-13.6,0c0,3.52,1.92,7,5.79,7s5.79-3.52,5.79-7-1.92-7-5.79-7S349.65,223.62,349.65,227.14Z" transform="translate(-150.1 -117.07)"/><path class="cls-1" d="M366.29,212.55h2V235.4h-2Z" transform="translate(-150.1 -117.07)"/><path class="cls-1" d="M387,227.14c0,4.74-2.75,8.74-7.81,8.74s-7.81-4-7.81-8.74,2.75-8.74,7.81-8.74S387,222.41,387,227.14Zm-13.6,0c0,3.52,1.92,7,5.79,7s5.79-3.52,5.79-7-1.92-7-5.79-7S373.37,223.62,373.37,227.14Z" transform="translate(-150.1 -117.07)"/><path class="cls-1" d="M390,218.89h1.86v3.87h.06a6.1,6.1,0,0,1,6.24-4.1v2A5.69,5.69,0,0,0,392,226.6v8.8h-2Z" transform="translate(-150.1 -117.07)"/><path class="cls-1" d="M399.86,223.94c.19-3.87,2.91-5.54,6.69-5.54,2.91,0,6.08.9,6.08,5.31v8.77a1.07,1.07,0,0,0,1.18,1.22,1.86,1.86,0,0,0,.64-.13v1.7a5.53,5.53,0,0,1-1.31.13c-2,0-2.37-1.15-2.37-2.88h-.06c-1.41,2.14-2.85,3.36-6,3.36s-5.54-1.5-5.54-4.83c0-4.64,4.51-4.8,8.87-5.31,1.66-.19,2.59-.42,2.59-2.24,0-2.72-2-3.39-4.32-3.39s-4.35,1.15-4.42,3.84Zm10.75,2.43h-.06c-.26.48-1.15.64-1.7.74-3.42.61-7.68.58-7.68,3.81a3.44,3.44,0,0,0,3.68,3.26c3.07,0,5.79-2,5.76-5.18Z" transform="translate(-150.1 -117.07)"/><path class="cls-1" d="M431.19,235.4h-1.86v-3.14h-.06a6.54,6.54,0,0,1-5.89,3.62c-5,0-7.42-4.06-7.42-8.74s2.4-8.74,7.42-8.74a5.89,5.89,0,0,1,5.73,3.62h.06v-9.47h2Zm-7.81-1.22c4.29,0,5.79-3.62,5.79-7s-1.5-7-5.79-7c-3.84,0-5.41,3.62-5.41,7S419.54,234.18,423.38,234.18Z" transform="translate(-150.1 -117.07)"/><path class="cls-1" d="M449.81,227.14c0,4.74-2.75,8.74-7.81,8.74s-7.81-4-7.81-8.74,2.75-8.74,7.81-8.74S449.81,222.41,449.81,227.14Zm-13.6,0c0,3.52,1.92,7,5.79,7s5.79-3.52,5.79-7-1.92-7-5.79-7S436.21,223.62,436.21,227.14Z" transform="translate(-150.1 -117.07)"/><path class="cls-1" d="M248.12,247.55h9.66c3.84,0,7.33,1.34,7.33,5.6a5.19,5.19,0,0,1-4,5.12v.06A5.35,5.35,0,0,1,266,263.9c0,2.18-.77,6.5-8.19,6.5h-9.66Zm2.18,10h7.49c3.49,0,5.15-1.73,5.15-3.87,0-2.85-1.76-4.29-5.15-4.29H250.3Zm0,11h7.49c3.23,0,6-1.06,6-4.7,0-2.91-2.21-4.41-6-4.41H250.3Z" transform="translate(-150.1 -117.07)"/><path class="cls-1" d="M283.86,262.14c0,4.74-2.75,8.74-7.81,8.74s-7.81-4-7.81-8.74,2.75-8.74,7.81-8.74S283.86,257.41,283.86,262.14Zm-13.6,0c0,3.52,1.92,7,5.79,7s5.79-3.52,5.79-7-1.92-7-5.79-7S270.26,258.62,270.26,262.14Z" transform="translate(-150.1 -117.07)"/><path class="cls-1" d="M300.25,270.4h-1.86v-3h-.06a6.14,6.14,0,0,1-5.7,3.46c-4.16,0-5.79-2.43-5.79-6.27V253.89h2v10.75c.1,3,1.22,4.54,4.42,4.54,3.46,0,5-3.26,5-6.62v-8.67h2Z" transform="translate(-150.1 -117.07)"/><path class="cls-1" d="M304.09,247.55h2V270.4h-2Z" transform="translate(-150.1 -117.07)"/><path class="cls-1" d="M324.5,270.4h-1.86v-3.14h-.06a6.54,6.54,0,0,1-5.89,3.62c-5,0-7.42-4.06-7.42-8.74s2.4-8.74,7.42-8.74a5.89,5.89,0,0,1,5.73,3.62h.06v-9.47h2Zm-7.81-1.22c4.29,0,5.79-3.62,5.79-7s-1.5-7-5.79-7c-3.84,0-5.41,3.62-5.41,7S312.86,269.18,316.69,269.18Z" transform="translate(-150.1 -117.07)"/><path class="cls-1" d="M329.53,262.69c0,2.94,1.57,6.5,5.44,6.5,2.94,0,4.54-1.73,5.18-4.22h2c-.86,3.74-3,5.92-7.2,5.92-5.25,0-7.46-4-7.46-8.74,0-4.35,2.21-8.74,7.46-8.74s7.42,4.64,7.26,9.28Zm10.69-1.7c-.1-3-2-5.89-5.25-5.89s-5.12,2.88-5.44,5.89Z" transform="translate(-150.1 -117.07)"/><path class="cls-1" d="M345,253.89h1.86v3.87h.06a6.1,6.1,0,0,1,6.24-4.1v2A5.69,5.69,0,0,0,347,261.6v8.8h-2Z" transform="translate(-150.1 -117.07)"/><polygon class="cls-2" points="158.33 20.07 158.33 10.92 147.43 0 109.66 0 98.73 10.92 98.73 48.62 109.66 59.53 121.66 59.53 121.66 68.71 132.68 79.64 164.55 79.64 175.6 68.72 175.6 39.51 181.22 39.51 181.22 20.07 158.33 20.07"/><polygon class="cls-3" points="146.96 1.13 157.19 11.39 157.19 21.2 180.09 21.2 180.09 38.39 174.46 38.39 174.46 68.24 164.08 78.5 133.14 78.5 122.79 68.24 122.79 58.4 110.13 58.4 99.86 48.15 99.86 11.39 110.13 1.13 146.96 1.13"/><polyline class="cls-1" points="111.31 55.57 125.62 55.57 125.62 67.06 134.31 75.67 162.92 75.67 171.63 67.06 171.63 35.55 177.26 35.55 177.26 24.04 159.99 24.04 159.99 64.17 137.13 64.17 137.13 55.57 145.78 55.57 154.37 46.97 154.37 35.55 142.85 35.55 142.85 44.08 137.13 44.08 137.13 24.04 119.91 24.04 119.91 35.55 125.62 35.55 125.62 44.08 114.18 44.08 114.18 15.37 142.85 15.37 142.85 24.04 154.37 24.04 154.37 12.57 145.78 3.96 111.31 3.96 102.69 12.56 102.69 46.97 111.31 55.57"/><polygon class="cls-2" points="135.72 54.15 145.2 54.15 152.95 46.39 152.95 36.97 144.27 36.97 144.27 45.5 135.72 45.5 135.72 25.46 121.33 25.46 121.33 34.14 127.04 34.14 127.04 45.5 112.77 45.5 112.77 13.95 144.27 13.95 144.27 22.62 152.95 22.62 152.95 13.15 145.2 5.38 111.89 5.38 104.11 13.15 104.11 46.39 111.89 54.15 127.04 54.15 127.04 66.47 134.89 74.26 162.34 74.26 170.22 66.46 170.22 34.14 175.84 34.14 175.84 25.46 161.41 25.46 161.41 65.58 135.72 65.58 135.72 54.15"/></svg>