<svg id="Layer_1" data-name="Layer 1" xmlns="http://www.w3.org/2000/svg" viewBox="0 0 214.53 79.63"><defs><style>.cls-1{fill:#cfb87c;}.cls-2{fill:#231f20;}.cls-3{fill:#fff;}</style></defs><title>incuvate-logo-white</title><polygon class="cls-1" points="59.6 20.07 59.6 10.92 48.7 0 10.93 0 0 10.92 0 48.62 10.93 59.53 22.93 59.53 22.93 68.71 33.95 79.64 65.82 79.64 76.86 68.72 76.86 39.51 82.49 39.51 82.49 20.07 59.6 20.07"/><polygon class="cls-2" points="48.23 1.13 58.46 11.39 58.46 21.2 81.36 21.2 81.36 38.39 75.73 38.39 75.73 68.24 65.35 78.5 34.41 78.5 24.06 68.24 24.06 58.4 11.4 58.4 1.13 48.15 1.13 11.39 11.4 1.13 48.23 1.13"/><polyline class="cls-3" points="12.57 55.57 26.89 55.57 26.89 67.06 35.58 75.67 64.19 75.67 72.9 67.06 72.9 35.55 78.53 35.55 78.53 24.04 61.26 24.04 61.26 64.17 38.4 64.17 38.4 55.57 47.05 55.57 55.63 46.97 55.63 35.55 44.12 35.55 44.12 44.08 38.4 44.08 38.4 24.04 21.18 24.04 21.18 35.55 26.89 35.55 26.89 44.08 15.45 44.08 15.45 15.37 44.12 15.37 44.12 24.04 55.63 24.04 55.63 12.57 47.05 3.96 12.57 3.96 3.96 12.56 3.96 46.97 12.57 55.57"/><polygon class="cls-1" points="36.98 54.15 46.47 54.15 54.22 46.39 54.22 36.97 45.54 36.97 45.54 45.5 36.98 45.5 36.98 25.46 22.6 25.46 22.6 34.14 28.31 34.14 28.31 45.5 14.04 45.5 14.04 13.95 45.54 13.95 45.54 22.62 54.22 22.62 54.22 13.15 46.47 5.38 13.16 5.38 5.38 13.15 5.38 46.39 13.16 54.15 28.31 54.15 28.31 66.47 36.16 74.26 63.6 74.26 71.48 66.46 71.48 34.14 77.11 34.14 77.11 25.46 62.67 25.46 62.67 65.58 36.98 65.58 36.98 54.15"/><path class="cls-3" d="M141.22,178.14V201.7H139V178.14Z" transform="translate(-40.28 -158.01)"/><path class="cls-3" d="M147.78,184.67v2.94h.07a5,5,0,0,1,2.11-2.49,6.2,6.2,0,0,1,3.33-.94,8.38,8.38,0,0,1,3,.46,4.73,4.73,0,0,1,1.93,1.3,4.87,4.87,0,0,1,1,2.06,11.63,11.63,0,0,1,.3,2.74v11h-2.08V191.07a9.86,9.86,0,0,0-.2-2,4.3,4.3,0,0,0-.69-1.63,3.36,3.36,0,0,0-1.34-1.09,4.91,4.91,0,0,0-2.1-.4,5.28,5.28,0,0,0-2.23.45,4.82,4.82,0,0,0-1.65,1.22,5.63,5.63,0,0,0-1.06,1.85,7.54,7.54,0,0,0-.41,2.33v9.93H145.7v-17Z" transform="translate(-40.28 -158.01)"/><path class="cls-3" d="M173.88,187a4.53,4.53,0,0,0-3.23-1.09,5.27,5.27,0,0,0-2.61.63,5.73,5.73,0,0,0-1.86,1.65,7.49,7.49,0,0,0-1.12,2.33,9.49,9.49,0,0,0,0,5.31,7.46,7.46,0,0,0,1.12,2.33,5.71,5.71,0,0,0,1.86,1.65,5.26,5.26,0,0,0,2.61.63,4.61,4.61,0,0,0,1.81-.36,4.86,4.86,0,0,0,1.52-1,5.4,5.4,0,0,0,1.09-1.54,5.67,5.67,0,0,0,.53-1.95h2.08a7.86,7.86,0,0,1-2.28,4.83,6.67,6.67,0,0,1-4.75,1.73,8,8,0,0,1-3.45-.71,7.34,7.34,0,0,1-2.52-1.93,8.41,8.41,0,0,1-1.55-2.85,11.75,11.75,0,0,1,0-7,8.4,8.4,0,0,1,1.55-2.85,7.5,7.5,0,0,1,2.52-1.95,7.83,7.83,0,0,1,3.45-.73,7.41,7.41,0,0,1,4.64,1.45,6.2,6.2,0,0,1,2.26,4.39h-2.08A5.72,5.72,0,0,0,173.88,187Z" transform="translate(-40.28 -158.01)"/><path class="cls-3" d="M192.46,201.7v-3.07h-.07a5.9,5.9,0,0,1-2.39,2.62,6.83,6.83,0,0,1-3.48.91,7.57,7.57,0,0,1-2.76-.45,4.59,4.59,0,0,1-1.85-1.27,5.14,5.14,0,0,1-1-2,10.12,10.12,0,0,1-.33-2.71V184.67h2.08v11.09a5.54,5.54,0,0,0,1.07,3.5,5.36,5.36,0,0,0,5.79.61,4.91,4.91,0,0,0,1.58-1.54,6.91,6.91,0,0,0,.92-2.19,10.76,10.76,0,0,0,.3-2.52v-8.94h2.08v17Z" transform="translate(-40.28 -158.01)"/><path class="cls-3" d="M198.7,184.67,204,199.62h.07l5.28-14.95h2.15l-6.37,17H203l-6.57-17Z" transform="translate(-40.28 -158.01)"/><path class="cls-3" d="M214,187.31a4.87,4.87,0,0,1,1.44-1.78,6.08,6.08,0,0,1,2.13-1,10.37,10.37,0,0,1,2.71-.33,12,12,0,0,1,2.24.21,5.43,5.43,0,0,1,2,.81,4.42,4.42,0,0,1,1.45,1.67,6,6,0,0,1,.56,2.79v9a1.09,1.09,0,0,0,1.22,1.25,1.61,1.61,0,0,0,.66-.13v1.75l-.64.1a6.16,6.16,0,0,1-.71,0,3.14,3.14,0,0,1-1.27-.21,1.69,1.69,0,0,1-.74-.61,2.28,2.28,0,0,1-.35-.94,8,8,0,0,1-.08-1.2h-.07a14,14,0,0,1-1.14,1.47,5.66,5.66,0,0,1-1.29,1.07,5.94,5.94,0,0,1-1.62.66,8.89,8.89,0,0,1-2.16.23,8.54,8.54,0,0,1-2.23-.28,5,5,0,0,1-1.81-.89,4.25,4.25,0,0,1-1.22-1.55,5.16,5.16,0,0,1-.45-2.23,4.4,4.4,0,0,1,.79-2.79,5,5,0,0,1,2.1-1.53,12,12,0,0,1,2.94-.74l3.32-.41q.66-.07,1.16-.17a2,2,0,0,0,.82-.35,1.61,1.61,0,0,0,.51-.68,2.92,2.92,0,0,0,.18-1.12,3.8,3.8,0,0,0-.35-1.73,2.74,2.74,0,0,0-1-1.07,3.88,3.88,0,0,0-1.42-.54,9.63,9.63,0,0,0-1.73-.15,5.25,5.25,0,0,0-3.23.94,3.69,3.69,0,0,0-1.32,3h-2.08A6.9,6.9,0,0,1,214,187.31Zm10.4,5.08a1.19,1.19,0,0,1-.76.53,7.7,7.7,0,0,1-1,.23q-1.32.23-2.72.41a14.91,14.91,0,0,0-2.56.54,5,5,0,0,0-1.9,1,2.48,2.48,0,0,0-.74,1.93,3,3,0,0,0,.31,1.4,3.4,3.4,0,0,0,.84,1.06,3.65,3.65,0,0,0,1.22.68,4.45,4.45,0,0,0,1.42.23,7.15,7.15,0,0,0,2.28-.36,5.59,5.59,0,0,0,1.9-1.06,5,5,0,0,0,1.77-3.93v-2.71Z" transform="translate(-40.28 -158.01)"/><path class="cls-3" d="M237.47,184.67v1.75H234V197.9a3.73,3.73,0,0,0,.28,1.6q.28.58,1.4.64a16,16,0,0,0,1.78-.1v1.75c-.31,0-.62,0-.92,0s-.62,0-.92,0a4.11,4.11,0,0,1-2.9-.81,4.07,4.07,0,0,1-.79-3V186.42h-3v-1.75h3v-5.11H234v5.11Z" transform="translate(-40.28 -158.01)"/><path class="cls-3" d="M242,196.07a6.37,6.37,0,0,0,1,2.16,5.75,5.75,0,0,0,1.75,1.58,4.89,4.89,0,0,0,2.54.63,5.06,5.06,0,0,0,3.56-1.19,6.25,6.25,0,0,0,1.78-3.17h2.08a8.3,8.3,0,0,1-2.43,4.49,7.24,7.24,0,0,1-5,1.58,7.94,7.94,0,0,1-3.48-.71,6.42,6.42,0,0,1-2.39-1.95,8.48,8.48,0,0,1-1.37-2.87,13.06,13.06,0,0,1-.45-3.45,12.38,12.38,0,0,1,.45-3.3,8.88,8.88,0,0,1,1.37-2.89,6.88,6.88,0,0,1,2.39-2,7.36,7.36,0,0,1,3.48-.78,6.74,6.74,0,0,1,5.86,3,9,9,0,0,1,1.3,3.07,13.45,13.45,0,0,1,.33,3.51H241.7A9.18,9.18,0,0,0,242,196.07Zm10.3-6.35a6.22,6.22,0,0,0-1.07-1.93,5.32,5.32,0,0,0-1.68-1.35,4.82,4.82,0,0,0-2.24-.51,4.89,4.89,0,0,0-2.28.51,5.33,5.33,0,0,0-1.68,1.35,6.75,6.75,0,0,0-1.11,1.95,9.53,9.53,0,0,0-.54,2.26h11A7.49,7.49,0,0,0,252.31,189.72Z" transform="translate(-40.28 -158.01)"/></svg>